<svg width="118" height="106" viewBox="0 0 118 106" fill="none" xmlns="http://www.w3.org/2000/svg">
<path d="M98.8125 53H83.5V40.7143C83.5 33.9379 88.9934 28.4286 95.75 28.4286H97.2812C99.827 28.4286 101.875 26.3746 101.875 23.8214V14.6071C101.875 12.054 99.827 10 97.2812 10H95.75C78.8297 10 65.125 23.7446 65.125 40.7143V86.7857C65.125 91.8728 69.2402 96 74.3125 96H98.8125C103.885 96 108 91.8728 108 86.7857V62.2143C108 57.1272 103.885 53 98.8125 53ZM43.6875 53H28.375V40.7143C28.375 33.9379 33.8684 28.4286 40.625 28.4286H42.1562C44.702 28.4286 46.75 26.3746 46.75 23.8214V14.6071C46.75 12.054 44.702 10 42.1562 10H40.625C23.7047 10 10 23.7446 10 40.7143V86.7857C10 91.8728 14.1152 96 19.1875 96H43.6875C48.7598 96 52.875 91.8728 52.875 86.7857V62.2143C52.875 57.1272 48.7598 53 43.6875 53Z" fill="#ffffff86"/>
</svg>
