<svg width="220" height="29" viewBox="0 0 220 29" fill="none" xmlns="http://www.w3.org/2000/svg">
<path d="M72.4578 14.0469C72.4578 12.2734 72.7195 10.6953 73.243 9.3125C73.7742 7.92187 74.6023 6.82422 75.7273 6.01953C76.8523 5.21484 78.2742 4.8125 79.993 4.8125C81.1648 4.8125 82.4031 4.96484 83.7078 5.26953C84.1297 5.51953 84.4969 5.78125 84.8094 6.05469C85.1297 6.32031 85.4344 6.64453 85.7234 7.02734C85.7234 7.58203 85.6492 8.32031 85.5008 9.24219C85.3523 10.1562 85.1648 11.0117 84.9383 11.8086C84.7195 12.5977 84.5086 13.1094 84.3055 13.3438C84.1023 13.4453 83.9305 13.5156 83.7898 13.5547C83.6492 13.5859 83.4305 13.6016 83.1336 13.6016C82.7664 13.6016 82.4227 13.5742 82.1023 13.5195C81.782 13.4648 81.5398 13.3906 81.3758 13.2969L80.9656 9.34766C80.4109 9.19141 79.6414 9.11328 78.657 9.11328C78.3914 9.11328 78.1961 9.11719 78.0711 9.125C77.7352 10.2031 77.5477 11.6523 77.5086 13.4727C77.5008 13.6914 77.4969 14.0234 77.4969 14.4688C77.4969 15.5156 77.5516 16.3633 77.6609 17.0117C77.7625 17.6211 77.8719 18.0781 77.9891 18.3828C78.1062 18.6875 78.3094 18.9219 78.5984 19.0859C78.8953 19.25 79.3367 19.332 79.9227 19.332C80.7117 19.332 81.4383 19.2188 82.1023 18.9922C82.7742 18.7578 83.5047 18.418 84.2937 17.9727C84.5906 18.293 84.8172 18.5547 84.9734 18.7578C85.1375 18.9609 85.2859 19.2109 85.4187 19.5078C85.5594 19.8047 85.6531 20.1445 85.7 20.5273C85.575 20.7852 85.243 21.1289 84.7039 21.5586C84.1648 21.9883 83.4578 22.375 82.5828 22.7188C81.7078 23.0625 80.7273 23.2344 79.6414 23.2344C77.1023 23.2344 75.2703 22.4414 74.1453 20.8555C73.0203 19.2695 72.4578 17 72.4578 14.0469ZM87.1184 15.3828C87.1184 11.7578 87.1888 9.26562 87.3294 7.90625L86.0052 7.67188C85.8177 6.95313 85.7239 6.17969 85.7239 5.35156C85.8411 5.20312 86.0598 5.01953 86.3802 4.80078C86.7005 4.58203 87.0716 4.39062 87.4934 4.22656C87.9231 4.0625 88.3489 3.98047 88.7708 3.98047C89.7317 3.98047 90.4466 4.22656 90.9153 4.71875C91.3841 5.21094 91.6184 5.96484 91.6184 6.98047C91.6184 7.42578 91.5794 8.14453 91.5013 9.13672C91.4231 10.1211 91.3098 11.1797 91.1614 12.3125C91.013 13.4375 90.8411 14.4414 90.6458 15.3242C90.6458 15.3711 90.6731 15.4141 90.7278 15.4531C90.7825 15.4922 90.8411 15.5117 90.9036 15.5117C90.9739 15.5117 91.0208 15.4844 91.0442 15.4297C91.3567 14.1875 91.6692 13.1484 91.9817 12.3125C92.2942 11.4766 92.7669 10.7344 93.3997 10.0859C94.0325 9.4375 94.8528 9.11328 95.8606 9.11328C97.1106 9.11328 98.0091 9.49609 98.5559 10.2617C99.1028 11.0195 99.3763 11.9766 99.3763 13.1328C99.3763 14.1641 99.2552 15.1602 99.013 16.1211C98.7708 17.0742 98.47 18.0703 98.1106 19.1094C98.1263 19.0703 98.0716 19.2227 97.9466 19.5664L97.97 19.5898L99.7044 18.8633C100.314 19.3867 100.669 20.082 100.771 20.9492C100.771 21.0039 100.595 21.2305 100.243 21.6289C99.8919 22.0195 99.427 22.3867 98.8489 22.7305C98.2786 23.0664 97.6223 23.2344 96.8802 23.2344C96.138 23.2344 95.5325 23.0352 95.0638 22.6367C94.595 22.2383 94.3606 21.5586 94.3606 20.5977C94.3606 19.832 94.3919 18.8086 94.4544 17.5273C94.5169 16.2461 94.5794 15.2148 94.6419 14.4336C94.4388 14.2148 94.1888 14.0977 93.8919 14.082C93.6184 14.4336 93.2161 15.1367 92.6848 16.1914C92.1536 17.2461 91.7786 18.0352 91.5598 18.5586C91.5442 18.668 91.5364 18.7734 91.5364 18.875C91.5364 19.2656 91.595 19.793 91.7122 20.457C91.8294 21.1133 91.9739 21.7266 92.1458 22.2969C92.0052 22.5625 91.7161 22.7852 91.2786 22.9648C90.8411 23.1445 90.302 23.2344 89.6614 23.2344C89.0833 23.2344 88.6184 23.1875 88.2669 23.0938C87.9231 23 87.6809 22.9023 87.5403 22.8008C87.3997 22.6914 87.3294 22.625 87.3294 22.6016C87.3216 22.5312 87.302 22.3477 87.2708 22.0508C87.2395 21.7461 87.2083 21.3242 87.177 20.7852C87.1458 20.2383 87.1302 19.6172 87.1302 18.9219L87.1184 15.3828ZM104.931 15.2773C105.392 15.2773 105.9 15.3242 106.455 15.418C107.017 15.5117 107.533 15.625 108.002 15.7578V15.3945C108.002 15.1523 107.994 14.8828 107.978 14.5859C107.97 14.2891 107.955 14.0938 107.931 14C107.861 13.8672 107.658 13.7305 107.322 13.5898C106.994 13.4492 106.455 13.3789 105.705 13.3789C105.244 13.3789 104.767 13.4375 104.275 13.5547C103.791 13.6641 103.252 13.8125 102.658 14C102.338 13.4688 102.08 12.9648 101.885 12.4883C101.697 12.0039 101.603 11.5195 101.603 11.0352C101.603 10.8867 101.615 10.7383 101.638 10.5898C102.904 9.60547 104.541 9.11328 106.549 9.11328C107.658 9.11328 108.642 9.23828 109.502 9.48828C110.361 9.73828 111.068 10.2227 111.623 10.9414C112.177 11.6602 112.455 12.6797 112.455 14C112.455 15.2891 112.302 16.5391 111.998 17.75C111.701 18.9531 111.549 19.5664 111.541 19.5898L113.24 18.8633C113.467 19.1055 113.666 19.4023 113.838 19.7539C114.017 20.0977 114.131 20.4961 114.177 20.9492C114.068 21.1836 113.83 21.4844 113.463 21.8516C113.095 22.2109 112.646 22.5312 112.115 22.8125C111.584 23.0938 111.029 23.2344 110.451 23.2344C109.802 23.2344 109.31 23.043 108.974 22.6602C108.646 22.2773 108.482 21.7812 108.482 21.1719C108.482 20.8281 108.533 20.4805 108.635 20.1289L108.283 20.0234C108.064 21.2578 107.599 22.1016 106.888 22.5547C106.177 23.0078 105.392 23.2344 104.533 23.2344C103.97 23.2344 103.427 23.0781 102.904 22.7656C102.381 22.4453 101.955 21.9844 101.627 21.3828C101.299 20.7734 101.135 20.0625 101.135 19.25C101.135 17.9531 101.459 16.9688 102.107 16.2969C102.756 15.6172 103.697 15.2773 104.931 15.2773ZM106.267 19.7422C106.463 19.7031 106.693 19.5938 106.959 19.4141C107.232 19.2344 107.474 19.0195 107.685 18.7695C107.896 18.5195 108.021 18.2812 108.06 18.0547L107.99 17.7734C107.576 17.7188 107.135 17.6914 106.666 17.6914C106.267 17.6914 105.994 17.7227 105.845 17.7852C105.595 18.0664 105.47 18.3789 105.47 18.7227C105.47 18.9727 105.533 19.1992 105.658 19.4023C105.791 19.6055 105.994 19.7188 106.267 19.7422ZM114.951 15.4297C114.951 11.7734 115.022 9.26562 115.162 7.90625L113.838 7.67188C113.651 6.95313 113.557 6.17969 113.557 5.35156C113.674 5.20312 113.893 5.01953 114.213 4.80078C114.533 4.58203 114.905 4.39062 115.326 4.22656C115.756 4.0625 116.182 3.98047 116.604 3.98047C117.651 3.98047 118.463 4.20703 119.041 4.66016C119.627 5.11328 119.92 5.88672 119.92 6.98047C119.92 7.52734 119.881 8.36719 119.803 9.5C119.725 10.625 119.58 11.9922 119.369 13.6016C119.158 15.2109 118.877 16.8906 118.526 18.6406L118.725 18.7578C119.342 17.9062 119.936 16.9688 120.506 15.9453C121.076 14.9141 121.53 13.957 121.865 13.0742L120.858 12.8281C120.764 12.2969 120.717 11.668 120.717 10.9414V10.5195C121.014 10.1445 121.42 9.81641 121.936 9.53516C122.459 9.25391 123.108 9.11328 123.881 9.11328C124.436 9.11328 124.916 9.21875 125.322 9.42969C125.729 9.63281 126.041 9.91797 126.26 10.2852C126.479 10.6523 126.588 11.0742 126.588 11.5508C126.588 11.9102 126.533 12.25 126.424 12.5703C126.315 12.8828 126.151 13.2148 125.932 13.5664C125.369 14.457 124.389 15.7227 122.99 17.3633C123.459 18.0195 123.916 18.5898 124.362 19.0742C124.533 18.9883 124.694 18.875 124.842 18.7344C124.998 18.5938 125.197 18.3906 125.44 18.125L125.697 17.8555L127.139 18.9453C127.084 20.3359 126.783 21.3984 126.237 22.1328C125.697 22.8594 124.983 23.2227 124.092 23.2227C123.115 23.2227 122.381 22.9258 121.889 22.332C121.397 21.7383 121.037 20.8984 120.811 19.8125C119.951 20.7422 119.194 21.5234 118.537 22.1562C117.889 22.7812 117.463 23.1406 117.26 23.2344C116.83 23.2344 116.42 23.1836 116.03 23.082C115.639 22.9805 115.35 22.8203 115.162 22.6016C115.076 21.4922 115.018 20.3945 114.987 19.3086C114.963 18.2148 114.951 16.9219 114.951 15.4297ZM131.651 15.2773C132.112 15.2773 132.62 15.3242 133.175 15.418C133.737 15.5117 134.253 15.625 134.721 15.7578V15.3945C134.721 15.1523 134.714 14.8828 134.698 14.5859C134.69 14.2891 134.675 14.0938 134.651 14C134.581 13.8672 134.378 13.7305 134.042 13.5898C133.714 13.4492 133.175 13.3789 132.425 13.3789C131.964 13.3789 131.487 13.4375 130.995 13.5547C130.51 13.6641 129.971 13.8125 129.378 14C129.057 13.4688 128.8 12.9648 128.604 12.4883C128.417 12.0039 128.323 11.5195 128.323 11.0352C128.323 10.8867 128.335 10.7383 128.358 10.5898C129.624 9.60547 131.26 9.11328 133.268 9.11328C134.378 9.11328 135.362 9.23828 136.221 9.48828C137.081 9.73828 137.788 10.2227 138.342 10.9414C138.897 11.6602 139.175 12.6797 139.175 14C139.175 15.2891 139.022 16.5391 138.717 17.75C138.421 18.9531 138.268 19.5664 138.26 19.5898L139.96 18.8633C140.186 19.1055 140.385 19.4023 140.557 19.7539C140.737 20.0977 140.85 20.4961 140.897 20.9492C140.788 21.1836 140.55 21.4844 140.182 21.8516C139.815 22.2109 139.366 22.5312 138.835 22.8125C138.303 23.0938 137.749 23.2344 137.171 23.2344C136.522 23.2344 136.03 23.043 135.694 22.6602C135.366 22.2773 135.202 21.7812 135.202 21.1719C135.202 20.8281 135.253 20.4805 135.354 20.1289L135.003 20.0234C134.784 21.2578 134.319 22.1016 133.608 22.5547C132.897 23.0078 132.112 23.2344 131.253 23.2344C130.69 23.2344 130.147 23.0781 129.624 22.7656C129.1 22.4453 128.675 21.9844 128.346 21.3828C128.018 20.7734 127.854 20.0625 127.854 19.25C127.854 17.9531 128.178 16.9688 128.827 16.2969C129.475 15.6172 130.417 15.2773 131.651 15.2773ZM132.987 19.7422C133.182 19.7031 133.413 19.5938 133.678 19.4141C133.952 19.2344 134.194 19.0195 134.405 18.7695C134.616 18.5195 134.741 18.2812 134.78 18.0547L134.71 17.7734C134.296 17.7188 133.854 17.6914 133.385 17.6914C132.987 17.6914 132.714 17.7227 132.565 17.7852C132.315 18.0664 132.19 18.3789 132.19 18.7227C132.19 18.9727 132.253 19.1992 132.378 19.4023C132.51 19.6055 132.714 19.7188 132.987 19.7422ZM144.202 18.3008C145.234 18.3008 145.984 18.5273 146.452 18.9805C146.929 19.4258 147.167 19.9883 147.167 20.668C147.167 21.1211 147.023 21.5469 146.734 21.9453C146.452 22.3359 146.081 22.6484 145.62 22.8828C145.167 23.1172 144.695 23.2344 144.202 23.2344C143.71 23.2344 143.234 23.1172 142.773 22.8828C142.32 22.6484 141.948 22.3359 141.659 21.9453C141.378 21.5469 141.237 21.1211 141.237 20.668C141.237 19.9883 141.472 19.4258 141.941 18.9805C142.417 18.5273 143.171 18.3008 144.202 18.3008Z" fill="#4FAB54"/>
</svg>
